<mxfile host="app.diagrams.net" modified="2023-09-28T14:44:58.565Z" agent="Mozilla/5.0 (Windows NT 10.0; Win64; x64) AppleWebKit/537.36 (KHTML, like Gecko) Chrome/117.0.0.0 Safari/537.36" version="21.8.2" etag="AeDnjy-Ce3FicnJEoGwQ" type="device">
  <diagram id="ej8OhnwDx3W4V3af9BJ3" name="Page-1">
    <mxGraphModel dx="1170" dy="718" grid="0" gridSize="10" guides="1" tooltips="1" connect="1" arrows="1" fold="1" page="1" pageScale="1" pageWidth="1169" pageHeight="827" math="0" shadow="0">
      <root>
        <mxCell id="0" />
        <mxCell id="1" parent="0" />
        <mxCell id="ewF1HsFpg5c28-ByQ0Jz-1" value="ChemicalMixture&lt;br&gt;Creator" style="rounded=0;whiteSpace=wrap;html=1;fontSize=17;" vertex="1" parent="1">
          <mxGeometry x="530" y="30" width="155" height="60" as="geometry" />
        </mxCell>
        <mxCell id="ewF1HsFpg5c28-ByQ0Jz-2" value="EvenMZFormula&lt;br&gt;Sampler" style="rounded=0;whiteSpace=wrap;html=1;fontSize=17;" vertex="1" parent="1">
          <mxGeometry x="530" y="414" width="155" height="60" as="geometry" />
        </mxCell>
        <mxCell id="ewF1HsFpg5c28-ByQ0Jz-3" value="PickEverything&lt;br&gt;Formula Sampler" style="rounded=0;whiteSpace=wrap;html=1;fontSize=17;" vertex="1" parent="1">
          <mxGeometry x="288" y="150" width="155" height="60" as="geometry" />
        </mxCell>
        <mxCell id="ewF1HsFpg5c28-ByQ0Jz-4" value="UniformMZFormula&lt;br&gt;Sampler" style="rounded=0;whiteSpace=wrap;html=1;fontSize=17;" vertex="1" parent="1">
          <mxGeometry x="344" y="414" width="155" height="60" as="geometry" />
        </mxCell>
        <mxCell id="ewF1HsFpg5c28-ByQ0Jz-5" value="DatabaseFormula&lt;br&gt;Sampler" style="rounded=0;whiteSpace=wrap;html=1;fontSize=17;" vertex="1" parent="1">
          <mxGeometry x="50" y="150" width="155" height="60" as="geometry" />
        </mxCell>
        <mxCell id="ewF1HsFpg5c28-ByQ0Jz-6" value="MZMLFormula&lt;br&gt;Sampler" style="rounded=0;whiteSpace=wrap;html=1;fontSize=17;" vertex="1" parent="1">
          <mxGeometry x="695" y="410" width="155" height="60" as="geometry" />
        </mxCell>
        <mxCell id="ewF1HsFpg5c28-ByQ0Jz-11" value="&lt;font style=&quot;font-size: 16px;&quot;&gt;Constructor&lt;/font&gt;" style="swimlane;fontStyle=0;childLayout=stackLayout;horizontal=1;startSize=30;horizontalStack=0;resizeParent=1;resizeParentMax=0;resizeLast=0;collapsible=1;marginBottom=0;whiteSpace=wrap;html=1;" vertex="1" parent="1">
          <mxGeometry x="880" y="120" width="206" height="210" as="geometry" />
        </mxCell>
        <mxCell id="ewF1HsFpg5c28-ByQ0Jz-39" value="formula_sampler" style="text;strokeColor=none;fillColor=none;align=left;verticalAlign=middle;spacingLeft=4;spacingRight=4;overflow=hidden;points=[[0,0.5],[1,0.5]];portConstraint=eastwest;rotatable=0;whiteSpace=wrap;html=1;fontSize=15;" vertex="1" parent="ewF1HsFpg5c28-ByQ0Jz-11">
          <mxGeometry y="30" width="206" height="30" as="geometry" />
        </mxCell>
        <mxCell id="ewF1HsFpg5c28-ByQ0Jz-38" value="rt_and_intensity_sampler" style="text;strokeColor=none;fillColor=none;align=left;verticalAlign=middle;spacingLeft=4;spacingRight=4;overflow=hidden;points=[[0,0.5],[1,0.5]];portConstraint=eastwest;rotatable=0;whiteSpace=wrap;html=1;fontSize=15;" vertex="1" parent="ewF1HsFpg5c28-ByQ0Jz-11">
          <mxGeometry y="60" width="206" height="30" as="geometry" />
        </mxCell>
        <mxCell id="ewF1HsFpg5c28-ByQ0Jz-41" value="chromatogram_sampler" style="text;strokeColor=none;fillColor=none;align=left;verticalAlign=middle;spacingLeft=4;spacingRight=4;overflow=hidden;points=[[0,0.5],[1,0.5]];portConstraint=eastwest;rotatable=0;whiteSpace=wrap;html=1;fontSize=15;" vertex="1" parent="ewF1HsFpg5c28-ByQ0Jz-11">
          <mxGeometry y="90" width="206" height="30" as="geometry" />
        </mxCell>
        <mxCell id="ewF1HsFpg5c28-ByQ0Jz-40" value="ms2_sampler" style="text;strokeColor=none;fillColor=none;align=left;verticalAlign=middle;spacingLeft=4;spacingRight=4;overflow=hidden;points=[[0,0.5],[1,0.5]];portConstraint=eastwest;rotatable=0;whiteSpace=wrap;html=1;fontSize=15;" vertex="1" parent="ewF1HsFpg5c28-ByQ0Jz-11">
          <mxGeometry y="120" width="206" height="30" as="geometry" />
        </mxCell>
        <mxCell id="ewF1HsFpg5c28-ByQ0Jz-42" value="adduct_proportion_cutoff" style="text;strokeColor=none;fillColor=none;align=left;verticalAlign=middle;spacingLeft=4;spacingRight=4;overflow=hidden;points=[[0,0.5],[1,0.5]];portConstraint=eastwest;rotatable=0;whiteSpace=wrap;html=1;fontSize=15;" vertex="1" parent="ewF1HsFpg5c28-ByQ0Jz-11">
          <mxGeometry y="150" width="206" height="30" as="geometry" />
        </mxCell>
        <mxCell id="ewF1HsFpg5c28-ByQ0Jz-12" value="adduct_prior_dict" style="text;strokeColor=none;fillColor=none;align=left;verticalAlign=middle;spacingLeft=4;spacingRight=4;overflow=hidden;points=[[0,0.5],[1,0.5]];portConstraint=eastwest;rotatable=0;whiteSpace=wrap;html=1;fontSize=15;" vertex="1" parent="ewF1HsFpg5c28-ByQ0Jz-11">
          <mxGeometry y="180" width="206" height="30" as="geometry" />
        </mxCell>
        <mxCell id="ewF1HsFpg5c28-ByQ0Jz-15" value="&lt;font style=&quot;font-size: 16px;&quot;&gt;Constructor&lt;/font&gt;" style="swimlane;fontStyle=0;childLayout=stackLayout;horizontal=1;startSize=30;horizontalStack=0;resizeParent=1;resizeParentMax=0;resizeLast=0;collapsible=1;marginBottom=0;whiteSpace=wrap;html=1;" vertex="1" parent="1">
          <mxGeometry x="186" y="268" width="140" height="120" as="geometry" />
        </mxCell>
        <mxCell id="ewF1HsFpg5c28-ByQ0Jz-16" value="database" style="text;strokeColor=none;fillColor=none;align=left;verticalAlign=middle;spacingLeft=4;spacingRight=4;overflow=hidden;points=[[0,0.5],[1,0.5]];portConstraint=eastwest;rotatable=0;whiteSpace=wrap;html=1;fontSize=15;" vertex="1" parent="ewF1HsFpg5c28-ByQ0Jz-15">
          <mxGeometry y="30" width="140" height="30" as="geometry" />
        </mxCell>
        <mxCell id="ewF1HsFpg5c28-ByQ0Jz-17" value="min_mz" style="text;strokeColor=none;fillColor=none;align=left;verticalAlign=middle;spacingLeft=4;spacingRight=4;overflow=hidden;points=[[0,0.5],[1,0.5]];portConstraint=eastwest;rotatable=0;whiteSpace=wrap;html=1;fontSize=15;" vertex="1" parent="ewF1HsFpg5c28-ByQ0Jz-15">
          <mxGeometry y="60" width="140" height="30" as="geometry" />
        </mxCell>
        <mxCell id="ewF1HsFpg5c28-ByQ0Jz-18" value="max_mz" style="text;strokeColor=none;fillColor=none;align=left;verticalAlign=middle;spacingLeft=4;spacingRight=4;overflow=hidden;points=[[0,0.5],[1,0.5]];portConstraint=eastwest;rotatable=0;whiteSpace=wrap;html=1;fontSize=15;" vertex="1" parent="ewF1HsFpg5c28-ByQ0Jz-15">
          <mxGeometry y="90" width="140" height="30" as="geometry" />
        </mxCell>
        <mxCell id="ewF1HsFpg5c28-ByQ0Jz-27" value="" style="endArrow=none;html=1;rounded=0;entryX=0.5;entryY=1;entryDx=0;entryDy=0;exitX=0.5;exitY=0;exitDx=0;exitDy=0;" edge="1" parent="1" source="ewF1HsFpg5c28-ByQ0Jz-5" target="ewF1HsFpg5c28-ByQ0Jz-1">
          <mxGeometry width="50" height="50" relative="1" as="geometry">
            <mxPoint x="550" y="260" as="sourcePoint" />
            <mxPoint x="600" y="210" as="targetPoint" />
          </mxGeometry>
        </mxCell>
        <mxCell id="ewF1HsFpg5c28-ByQ0Jz-28" value="" style="endArrow=none;html=1;rounded=0;entryX=0.5;entryY=1;entryDx=0;entryDy=0;exitX=0.5;exitY=0;exitDx=0;exitDy=0;" edge="1" parent="1" source="ewF1HsFpg5c28-ByQ0Jz-4" target="ewF1HsFpg5c28-ByQ0Jz-1">
          <mxGeometry width="50" height="50" relative="1" as="geometry">
            <mxPoint x="550" y="260" as="sourcePoint" />
            <mxPoint x="600" y="210" as="targetPoint" />
          </mxGeometry>
        </mxCell>
        <mxCell id="ewF1HsFpg5c28-ByQ0Jz-29" value="" style="endArrow=none;html=1;rounded=0;entryX=0.5;entryY=1;entryDx=0;entryDy=0;exitX=0.5;exitY=0;exitDx=0;exitDy=0;" edge="1" parent="1" source="ewF1HsFpg5c28-ByQ0Jz-3" target="ewF1HsFpg5c28-ByQ0Jz-1">
          <mxGeometry width="50" height="50" relative="1" as="geometry">
            <mxPoint x="530" y="290" as="sourcePoint" />
            <mxPoint x="587.5" y="119.99999999999989" as="targetPoint" />
          </mxGeometry>
        </mxCell>
        <mxCell id="ewF1HsFpg5c28-ByQ0Jz-30" value="" style="endArrow=none;html=1;rounded=0;entryX=0.5;entryY=1;entryDx=0;entryDy=0;exitX=0.5;exitY=0;exitDx=0;exitDy=0;" edge="1" parent="1" source="ewF1HsFpg5c28-ByQ0Jz-2" target="ewF1HsFpg5c28-ByQ0Jz-1">
          <mxGeometry width="50" height="50" relative="1" as="geometry">
            <mxPoint x="550" y="260" as="sourcePoint" />
            <mxPoint x="600" y="210" as="targetPoint" />
          </mxGeometry>
        </mxCell>
        <mxCell id="ewF1HsFpg5c28-ByQ0Jz-31" value="" style="endArrow=none;html=1;rounded=0;entryX=0.5;entryY=1;entryDx=0;entryDy=0;exitX=0.5;exitY=0;exitDx=0;exitDy=0;" edge="1" parent="1" source="ewF1HsFpg5c28-ByQ0Jz-6" target="ewF1HsFpg5c28-ByQ0Jz-1">
          <mxGeometry width="50" height="50" relative="1" as="geometry">
            <mxPoint x="550" y="260" as="sourcePoint" />
            <mxPoint x="600" y="210" as="targetPoint" />
          </mxGeometry>
        </mxCell>
        <mxCell id="ewF1HsFpg5c28-ByQ0Jz-32" value="" style="endArrow=none;html=1;rounded=0;entryX=0.5;entryY=1;entryDx=0;entryDy=0;exitX=0.5;exitY=0;exitDx=0;exitDy=0;" edge="1" parent="1" source="ewF1HsFpg5c28-ByQ0Jz-15" target="ewF1HsFpg5c28-ByQ0Jz-5">
          <mxGeometry width="50" height="50" relative="1" as="geometry">
            <mxPoint x="550" y="260" as="sourcePoint" />
            <mxPoint x="600" y="210" as="targetPoint" />
          </mxGeometry>
        </mxCell>
        <mxCell id="ewF1HsFpg5c28-ByQ0Jz-33" value="" style="endArrow=none;html=1;rounded=0;exitX=0.5;exitY=0;exitDx=0;exitDy=0;entryX=1;entryY=0.5;entryDx=0;entryDy=0;" edge="1" parent="1" source="ewF1HsFpg5c28-ByQ0Jz-11" target="ewF1HsFpg5c28-ByQ0Jz-1">
          <mxGeometry width="50" height="50" relative="1" as="geometry">
            <mxPoint x="550" y="260" as="sourcePoint" />
            <mxPoint x="358" y="220" as="targetPoint" />
          </mxGeometry>
        </mxCell>
        <mxCell id="ewF1HsFpg5c28-ByQ0Jz-34" value="" style="endArrow=none;html=1;rounded=0;entryX=0.5;entryY=1;entryDx=0;entryDy=0;exitX=0.5;exitY=0;exitDx=0;exitDy=0;" edge="1" parent="1" source="ewF1HsFpg5c28-ByQ0Jz-15" target="ewF1HsFpg5c28-ByQ0Jz-3">
          <mxGeometry width="50" height="50" relative="1" as="geometry">
            <mxPoint x="550" y="260" as="sourcePoint" />
            <mxPoint x="600" y="210" as="targetPoint" />
          </mxGeometry>
        </mxCell>
        <mxCell id="ewF1HsFpg5c28-ByQ0Jz-43" value="&lt;font style=&quot;font-size: 16px;&quot;&gt;SampleFn&lt;/font&gt;" style="swimlane;fontStyle=0;childLayout=stackLayout;horizontal=1;startSize=30;horizontalStack=0;resizeParent=1;resizeParentMax=0;resizeLast=0;collapsible=1;marginBottom=0;whiteSpace=wrap;html=1;" vertex="1" parent="1">
          <mxGeometry x="877" y="350" width="206" height="120" as="geometry" />
        </mxCell>
        <mxCell id="ewF1HsFpg5c28-ByQ0Jz-44" value="n_chemicals" style="text;strokeColor=none;fillColor=none;align=left;verticalAlign=middle;spacingLeft=4;spacingRight=4;overflow=hidden;points=[[0,0.5],[1,0.5]];portConstraint=eastwest;rotatable=0;whiteSpace=wrap;html=1;fontSize=15;" vertex="1" parent="ewF1HsFpg5c28-ByQ0Jz-43">
          <mxGeometry y="30" width="206" height="30" as="geometry" />
        </mxCell>
        <mxCell id="ewF1HsFpg5c28-ByQ0Jz-45" value="ms_levels" style="text;strokeColor=none;fillColor=none;align=left;verticalAlign=middle;spacingLeft=4;spacingRight=4;overflow=hidden;points=[[0,0.5],[1,0.5]];portConstraint=eastwest;rotatable=0;whiteSpace=wrap;html=1;fontSize=15;" vertex="1" parent="ewF1HsFpg5c28-ByQ0Jz-43">
          <mxGeometry y="60" width="206" height="30" as="geometry" />
        </mxCell>
        <mxCell id="ewF1HsFpg5c28-ByQ0Jz-46" value="include_adducts_isotopes" style="text;strokeColor=none;fillColor=none;align=left;verticalAlign=middle;spacingLeft=4;spacingRight=4;overflow=hidden;points=[[0,0.5],[1,0.5]];portConstraint=eastwest;rotatable=0;whiteSpace=wrap;html=1;fontSize=15;" vertex="1" parent="ewF1HsFpg5c28-ByQ0Jz-43">
          <mxGeometry y="90" width="206" height="30" as="geometry" />
        </mxCell>
        <mxCell id="ewF1HsFpg5c28-ByQ0Jz-50" value="" style="endArrow=none;html=1;rounded=0;entryX=0;entryY=0;entryDx=0;entryDy=0;exitX=1;exitY=1;exitDx=0;exitDy=0;" edge="1" parent="1" source="ewF1HsFpg5c28-ByQ0Jz-1" target="ewF1HsFpg5c28-ByQ0Jz-43">
          <mxGeometry width="50" height="50" relative="1" as="geometry">
            <mxPoint x="606" y="398" as="sourcePoint" />
            <mxPoint x="656" y="348" as="targetPoint" />
          </mxGeometry>
        </mxCell>
        <mxCell id="ewF1HsFpg5c28-ByQ0Jz-51" value="Is it just a case of selecting a sampler, adjusting other&lt;br&gt;parameters if wanting to and then pressing run?" style="text;html=1;strokeColor=none;fillColor=none;align=center;verticalAlign=middle;whiteSpace=wrap;rounded=0;fontSize=19;" vertex="1" parent="1">
          <mxGeometry x="303" y="581" width="538" height="83" as="geometry" />
        </mxCell>
      </root>
    </mxGraphModel>
  </diagram>
</mxfile>
